<svg xmlns="http://www.w3.org/2000/svg" viewBox="0 0 1200 900" font-family="Arial, sans-serif">

  <!-- Background -->
  <rect width="1200" height="900" fill="#ffffff"/>

  <!-- Title -->
  <text x="600" y="20" text-anchor="middle" fill="#78716c" font-size="10" letter-spacing="3">FIELD NOTES — DOCUMENTATION-STYLE LAYOUT</text>

  <!-- ==================== LEFT SIDEBAR ==================== -->
  <rect x="0" y="30" width="260" height="870" fill="#f9f8f6" stroke="#e7e5e4" stroke-width="1"/>

  <!-- Identity block -->
  <circle cx="40" cy="72" r="20" fill="#e7e5e4" stroke="#d6d3d1" stroke-width="1"/>
  <text x="40" y="77" text-anchor="middle" fill="#78716c" font-size="8">Photo</text>
  <text x="70" y="66" fill="#1c1917" font-size="15" font-weight="700">Derek B. Archer</text>
  <text x="70" y="82" fill="#78716c" font-size="11">Vanderbilt University</text>

  <!-- Divider -->
  <line x1="20" y1="100" x2="240" y2="100" stroke="#e7e5e4" stroke-width="1"/>

  <!-- Navigation -->
  <!-- Overview (active) -->
  <rect x="0" y="112" width="260" height="30" fill="#eef2ff"/>
  <rect x="0" y="112" width="3" height="30" fill="#4f46e5"/>
  <text x="24" y="132" fill="#4f46e5" font-size="13" font-weight="600">Overview</text>

  <!-- Research (section header) -->
  <text x="24" y="168" fill="#1c1917" font-size="12" font-weight="600">Research</text>
  <text x="230" y="168" fill="#78716c" font-size="10">▾</text>
  <!-- Sub-items -->
  <text x="36" y="190" fill="#44403c" font-size="11">Neuroimaging Biomarkers</text>
  <text x="36" y="210" fill="#44403c" font-size="11">Computational Genetics</text>
  <text x="36" y="230" fill="#44403c" font-size="11">White Matter Neurodegeneration</text>
  <text x="36" y="250" fill="#44403c" font-size="11">AI Brain Signatures</text>

  <!-- Publications (section header) -->
  <text x="24" y="282" fill="#1c1917" font-size="12" font-weight="600">Publications</text>
  <text x="230" y="282" fill="#78716c" font-size="10">▾</text>
  <text x="36" y="304" fill="#44403c" font-size="11">Featured Papers</text>
  <text x="36" y="324" fill="#44403c" font-size="11">All Publications</text>
  <text x="36" y="344" fill="#44403c" font-size="11">By Topic</text>

  <!-- Projects (section header) -->
  <text x="24" y="376" fill="#1c1917" font-size="12" font-weight="600">Projects</text>
  <text x="230" y="376" fill="#78716c" font-size="10">▸</text>

  <!-- About -->
  <text x="24" y="410" fill="#1c1917" font-size="12" font-weight="600">About</text>
  <text x="230" y="410" fill="#78716c" font-size="10">▸</text>

  <!-- Contact -->
  <text x="24" y="444" fill="#44403c" font-size="12">Contact</text>

  <!-- Divider -->
  <line x1="20" y1="470" x2="240" y2="470" stroke="#e7e5e4" stroke-width="1"/>

  <!-- External links -->
  <text x="24" y="496" fill="#4f46e5" font-size="11">Google Scholar ↗</text>
  <text x="24" y="516" fill="#4f46e5" font-size="11">ORCID ↗</text>
  <text x="24" y="536" fill="#4f46e5" font-size="11">PubMed ↗</text>

  <!-- ==================== MAIN CONTENT ==================== -->
  <rect x="260" y="30" width="700" height="870" fill="#ffffff" stroke="#e7e5e4" stroke-width="0 1 0 0"/>

  <!-- Breadcrumb -->
  <text x="300" y="62" fill="#78716c" font-size="11">Overview</text>

  <!-- Page title -->
  <text x="300" y="100" fill="#1c1917" font-size="32" font-weight="700">Overview</text>

  <!-- Research summary -->
  <text x="300" y="140" fill="#44403c" font-size="13">
    <tspan x="300" dy="0">Derek B. Archer, PhD is an Assistant Professor of Neurology at Vanderbilt</tspan>
    <tspan x="300" dy="20">University Medical Center. His research focuses on the intersection of</tspan>
    <tspan x="300" dy="20">neuroimaging, computational genetics, and neurodegenerative disease,</tspan>
    <tspan x="300" dy="20">with the goal of identifying biomarkers for early detection and intervention.</tspan>
  </text>

  <!-- Callout box 1 -->
  <rect x="300" y="240" width="620" height="80" rx="6" fill="#eef2ff" stroke="#4f46e5" stroke-width="0 0 0 3"/>
  <text x="320" y="265" fill="#4f46e5" font-size="11" font-weight="700" letter-spacing="1">RESEARCH FOCUS</text>
  <text x="320" y="285" fill="#44403c" font-size="12">Investigating how genetic variation influences brain structure and function in</text>
  <text x="320" y="302" fill="#44403c" font-size="12">aging and neurodegenerative disease using advanced neuroimaging and AI.</text>

  <!-- Quick stats grid (2x2) -->
  <text x="300" y="355" fill="#1c1917" font-size="18" font-weight="700">Key Metrics</text>

  <!-- Stat 1 -->
  <rect x="300" y="370" width="145" height="70" rx="6" fill="#f5f5f4" stroke="#e7e5e4" stroke-width="1"/>
  <rect x="300" y="370" width="3" height="70" rx="2" fill="#0d9488"/>
  <text x="320" y="400" fill="#0d9488" font-size="24" font-weight="700" font-family="monospace">2,060+</text>
  <text x="320" y="420" fill="#78716c" font-size="10" letter-spacing="1">CITATIONS</text>

  <!-- Stat 2 -->
  <rect x="460" y="370" width="145" height="70" rx="6" fill="#f5f5f4" stroke="#e7e5e4" stroke-width="1"/>
  <rect x="460" y="370" width="3" height="70" rx="2" fill="#0d9488"/>
  <text x="480" y="400" fill="#0d9488" font-size="24" font-weight="700" font-family="monospace">45+</text>
  <text x="480" y="420" fill="#78716c" font-size="10" letter-spacing="1">PUBLICATIONS</text>

  <!-- Stat 3 -->
  <rect x="620" y="370" width="145" height="70" rx="6" fill="#f5f5f4" stroke="#e7e5e4" stroke-width="1"/>
  <rect x="620" y="370" width="3" height="70" rx="2" fill="#0d9488"/>
  <text x="640" y="400" fill="#0d9488" font-size="24" font-weight="700" font-family="monospace">5</text>
  <text x="640" y="420" fill="#78716c" font-size="10" letter-spacing="1">COHORTS</text>

  <!-- Stat 4 -->
  <rect x="780" y="370" width="140" height="70" rx="6" fill="#f5f5f4" stroke="#e7e5e4" stroke-width="1"/>
  <rect x="780" y="370" width="3" height="70" rx="2" fill="#0d9488"/>
  <text x="800" y="400" fill="#0d9488" font-size="24" font-weight="700" font-family="monospace">NIH</text>
  <text x="800" y="420" fill="#78716c" font-size="10" letter-spacing="1">FUNDED</text>

  <!-- Recent Publications -->
  <text x="300" y="490" fill="#1c1917" font-size="18" font-weight="700">Recent Publications</text>

  <!-- Paper 1 -->
  <rect x="300" y="505" width="620" height="1" fill="#e7e5e4"/>
  <text x="300" y="530" fill="#1c1917" font-size="13" font-weight="600">White matter hyperintensities and Alzheimer disease risk factors</text>
  <text x="300" y="548" fill="#78716c" font-size="11">Peter T, ... <tspan fill="#1c1917" font-weight="600">Archer DB</tspan> · </text>
  <text x="410" y="548" fill="#4f46e5" font-size="11">JAMA Neurology</text>
  <text x="520" y="548" fill="#78716c" font-size="11">· 2025</text>
  <rect x="560" y="536" width="70" height="18" rx="9" fill="#eef2ff" stroke="#4f46e5" stroke-width="0.5"/>
  <text x="595" y="549" text-anchor="middle" fill="#4f46e5" font-size="9">Last Author</text>

  <!-- Paper 2 -->
  <rect x="300" y="565" width="620" height="1" fill="#e7e5e4"/>
  <text x="300" y="590" fill="#1c1917" font-size="13" font-weight="600">Brain-predicted age difference and cognition in older adults</text>
  <text x="300" y="608" fill="#78716c" font-size="11"><tspan fill="#1c1917" font-weight="600">Archer DB</tspan>, ... · </text>
  <text x="380" y="608" fill="#4f46e5" font-size="11">Neurobiology of Aging</text>
  <text x="520" y="608" fill="#78716c" font-size="11">· 2024</text>
  <rect x="560" y="596" width="72" height="18" rx="9" fill="#f0fdf4" stroke="#0d9488" stroke-width="0.5"/>
  <text x="596" y="609" text-anchor="middle" fill="#0d9488" font-size="9">First Author</text>

  <!-- Paper 3 -->
  <rect x="300" y="625" width="620" height="1" fill="#e7e5e4"/>
  <text x="300" y="650" fill="#1c1917" font-size="13" font-weight="600">Genetic influences on brain aging and association with cognition</text>
  <text x="300" y="668" fill="#78716c" font-size="11"><tspan fill="#1c1917" font-weight="600">Archer DB</tspan>, ... · </text>
  <text x="380" y="668" fill="#4f46e5" font-size="11">Nature Communications</text>
  <text x="530" y="668" fill="#78716c" font-size="11">· 2023</text>

  <!-- View all link -->
  <text x="300" y="700" fill="#4f46e5" font-size="12" font-weight="600">View all publications →</text>

  <!-- Footer in main column -->
  <line x1="300" y1="840" x2="920" y2="840" stroke="#e7e5e4" stroke-width="1"/>
  <text x="300" y="865" fill="#78716c" font-size="10">2025 Derek B. Archer · Last updated Feb 2025</text>

  <!-- ==================== RIGHT SIDEBAR ==================== -->
  <rect x="960" y="30" width="240" height="870" fill="#f8fafc" stroke="#e7e5e4" stroke-width="1 0 0 1"/>

  <text x="984" y="65" fill="#78716c" font-size="10" letter-spacing="1" font-weight="600">ON THIS PAGE</text>

  <!-- Page sections -->
  <text x="984" y="90" fill="#44403c" font-size="11">Overview</text>
  <rect x="980" y="98" width="1" height="0" fill="#4f46e5"/>
  <text x="984" y="112" fill="#4f46e5" font-size="11" font-weight="500">Key Metrics</text>
  <rect x="980" y="102" width="2" height="14" fill="#4f46e5"/>
  <text x="984" y="134" fill="#44403c" font-size="11">Recent Publications</text>

  <!-- Quick links section -->
  <line x1="984" y1="160" x2="1170" y2="160" stroke="#e7e5e4" stroke-width="1"/>
  <text x="984" y="185" fill="#78716c" font-size="10" letter-spacing="1" font-weight="600">QUICK LINKS</text>
  <text x="984" y="210" fill="#4f46e5" font-size="11">Google Scholar ↗</text>
  <text x="984" y="230" fill="#4f46e5" font-size="11">Contact ↗</text>
  <text x="984" y="250" fill="#4f46e5" font-size="11">Download CV (PDF) ↗</text>

  <!-- Contextual info -->
  <line x1="984" y1="275" x2="1170" y2="275" stroke="#e7e5e4" stroke-width="1"/>
  <text x="984" y="300" fill="#78716c" font-size="10" letter-spacing="1" font-weight="600">RESEARCH AREAS</text>
  <rect x="984" y="312" width="8" height="8" rx="2" fill="#4f46e5"/>
  <text x="1000" y="320" fill="#44403c" font-size="11">Neuroimaging</text>
  <rect x="984" y="332" width="8" height="8" rx="2" fill="#0d9488"/>
  <text x="1000" y="340" fill="#44403c" font-size="11">Genetics</text>
  <rect x="984" y="352" width="8" height="8" rx="2" fill="#f59e0b"/>
  <text x="1000" y="360" fill="#44403c" font-size="11">White Matter</text>
  <rect x="984" y="372" width="8" height="8" rx="2" fill="#f43f5e"/>
  <text x="1000" y="380" fill="#44403c" font-size="11">AI Signatures</text>

  <!-- Label -->
  <text x="600" y="895" text-anchor="middle" fill="#78716c" font-size="10" letter-spacing="2">FIELD NOTES — THREE-COLUMN DOCUMENTATION LAYOUT</text>
</svg>
